# xmcd CD database file
#
# Track frame offsets:
#	150
#	17907
#	53372
#	86227
#	114747
#	141840
#	170082
#	202782
#
# Disc length: 2857 seconds
#
# Revision: 0
# Processed by: cddbd v1.4PL0 Copyright (c) Steve Scherf et al.
# Submitted via: CDex 1.51
#
DISCID=680b2708
DTITLE=Claudia Solal Quartet - My own Foolosophy
DYEAR=1997
DGENRE=Jazz
TTITLE0=Trust in Me
TTITLE1=Life is so sweet
TTITLE2=The colours of your soul
TTITLE3=This masquerade
TTITLE4=Crazy he calls me
TTITLE5=Fly high
TTITLE6=Out of this world
TTITLE7=My own foolosophy
EXTD=YEAR: 1997
EXTT0=
EXTT1=
EXTT2=
EXTT3=
EXTT4=
EXTT5=
EXTT6=
EXTT7=
PLAYORDER=
